<svg width="16" height="16" viewBox="0 0 16 16" fill="none" xmlns="http://www.w3.org/2000/svg">
<path fill-rule="evenodd" clip-rule="evenodd" d="M7.89328 10.7503C9.47123 10.7503 10.7504 9.47111 10.7504 7.89315C10.7504 6.3152 9.47123 5.03601 7.89328 5.03601C6.31532 5.03601 5.03613 6.3152 5.03613 7.89315C5.03613 9.47111 6.31532 10.7503 7.89328 10.7503Z" stroke="#013C61" stroke-width="1.5" stroke-linecap="round" stroke-linejoin="round"/>
<path d="M10.7504 5.03603V8.60745C10.7504 9.79092 11.7098 10.7503 12.8933 10.7503C14.0767 10.7503 15.0361 9.79092 15.0361 8.60745V7.89317C15.0359 4.57382 12.7491 1.69204 9.51659 0.937667C6.2841 0.183298 2.95791 1.75516 1.48846 4.73154C0.0190161 7.70792 0.793602 11.3043 3.35801 13.4119C5.92243 15.5195 9.60078 15.5828 12.2361 13.5646" stroke="#013C61" stroke-width="1.5" stroke-linecap="round" stroke-linejoin="round"/>
</svg>
