<svg width="17" height="17" viewBox="0 0 17 17" fill="none" xmlns="http://www.w3.org/2000/svg">
<path fill-rule="evenodd" clip-rule="evenodd" d="M15.9029 12.1177V14.4034C15.9046 14.8325 15.7254 15.2424 15.4092 15.5324C15.093 15.8225 14.6692 15.9658 14.2419 15.9272C11.8974 15.6725 9.64533 14.8713 7.66667 13.5882C5.82577 12.4184 4.26502 10.8576 3.09524 9.01674C1.8076 7.02909 1.00628 4.76607 0.75619 2.41103C0.717693 1.98503 0.860016 1.56246 1.14839 1.24655C1.43677 0.930638 1.84464 0.750478 2.27238 0.750075H4.55809C5.32294 0.742547 5.97486 1.30319 6.0819 2.06055C6.17838 2.79203 6.35729 3.51025 6.61524 4.2015C6.82456 4.75836 6.69068 5.38612 6.27238 5.80912L5.30476 6.77674C6.38937 8.6842 7.96873 10.2636 9.87619 11.3482L10.8438 10.3806C11.2668 9.96225 11.8946 9.82837 12.4514 10.0377C13.1427 10.2956 13.8609 10.4746 14.5924 10.571C15.3585 10.6791 15.922 11.3442 15.9029 12.1177Z" stroke="#013C61" stroke-width="1.5" stroke-linecap="round" stroke-linejoin="round"/>
</svg>
