<svg width="18" height="21" viewBox="0 0 18 21" fill="none" xmlns="http://www.w3.org/2000/svg">
<path d="M0.600098 4.75597H2.37788H16.6001" stroke="#6A7E8A" stroke-width="1.2" stroke-linecap="round" stroke-linejoin="round"/>
<path d="M3.57793 4.75575C3.57793 4.09301 3.04067 3.55575 2.37793 3.55575V4.75575H3.57793ZM3.57793 17.2002V4.75575H2.37793V17.2002H3.57793ZM4.15571 17.778C3.83661 17.778 3.57793 17.5193 3.57793 17.2002H2.37793C2.37793 18.182 3.17387 18.978 4.15571 18.978V17.778ZM13.0446 17.778H4.15571V18.978H13.0446V17.778ZM13.6224 17.2002C13.6224 17.5193 13.3637 17.778 13.0446 17.778V18.978C14.0264 18.978 14.8224 18.182 14.8224 17.2002H13.6224ZM13.6224 4.75575V17.2002H14.8224V4.75575H13.6224ZM14.8224 3.55575C14.1596 3.55575 13.6224 4.09301 13.6224 4.75575H14.8224V3.55575ZM16.0224 4.75575C16.0224 4.09301 15.4851 3.55575 14.8224 3.55575V4.75575H16.0224ZM16.0224 17.2002V4.75575H14.8224V17.2002H16.0224ZM13.0446 20.178C14.6892 20.178 16.0224 18.8448 16.0224 17.2002H14.8224C14.8224 18.182 14.0264 18.978 13.0446 18.978V20.178ZM4.15571 20.178H13.0446V18.978H4.15571V20.178ZM1.17793 17.2002C1.17793 18.8448 2.51113 20.178 4.15571 20.178V18.978C3.17387 18.978 2.37793 18.182 2.37793 17.2002H1.17793ZM1.17793 4.75575V17.2002H2.37793V4.75575H1.17793ZM2.37793 3.55575C1.71519 3.55575 1.17793 4.09301 1.17793 4.75575H2.37793V3.55575ZM6.2446 2.97797C6.2446 2.65888 6.50328 2.4002 6.82237 2.4002V1.2002C5.84053 1.2002 5.0446 1.99613 5.0446 2.97797H6.2446ZM6.2446 4.75575V2.97797H5.0446V4.75575H6.2446ZM5.0446 5.95575C5.70734 5.95575 6.2446 5.41849 6.2446 4.75575H5.0446V4.75575V5.95575ZM3.8446 4.75575C3.8446 5.41849 4.38185 5.95575 5.0446 5.95575V4.75575V4.75575H3.8446ZM3.8446 2.97797V4.75575H5.0446V2.97797H3.8446ZM6.82237 0.000195265C5.17779 0.000195265 3.8446 1.33339 3.8446 2.97797H5.0446C5.0446 1.99613 5.84053 1.2002 6.82237 1.2002V0.000195265ZM10.3779 0.000195265H6.82237V1.2002H10.3779V0.000195265ZM13.3557 2.97797C13.3557 1.33339 12.0225 0.000195265 10.3779 0.000195265V1.2002C11.3598 1.2002 12.1557 1.99613 12.1557 2.97797H13.3557ZM13.3557 4.75575V2.97797H12.1557V4.75575H13.3557ZM12.1557 5.95575C12.8184 5.95575 13.3557 5.41849 13.3557 4.75575H12.1557V4.75575V5.95575ZM10.9557 4.75575C10.9557 5.41849 11.493 5.95575 12.1557 5.95575V4.75575V4.75575H10.9557ZM10.9557 2.97797V4.75575H12.1557V2.97797H10.9557ZM10.3779 2.4002C10.697 2.4002 10.9557 2.65888 10.9557 2.97797H12.1557C12.1557 1.99613 11.3598 1.2002 10.3779 1.2002V2.4002ZM6.82237 2.4002H10.3779V1.2002H6.82237V2.4002Z" fill="#6A7E8A"/>
<path d="M6.82237 9.2002V14.5335" stroke="#6A7E8A" stroke-width="1.2" stroke-linecap="square" stroke-linejoin="round"/>
<path d="M10.378 9.2002V14.5335" stroke="#6A7E8A" stroke-width="1.2" stroke-linecap="square" stroke-linejoin="round"/>
</svg>
